<?xml version="1.0" encoding="utf-8"?>
<!-- Generator: Adobe Illustrator 21.1.0, SVG Export Plug-In . SVG Version: 6.00 Build 0)  -->
<svg version="1.1" id="Layer_1" xmlns="http://www.w3.org/2000/svg" xmlns:xlink="http://www.w3.org/1999/xlink" x="0px" y="0px"
	 viewBox="0 0 40 40" style="enable-background:new 0 0 40 40;" xml:space="preserve">
<style type="text/css">
	.st0{fill:#FFFFFF;}
</style>
<g>
	<path class="st0" d="M31.8,12.3v20.4c0,1.7-1.4,3-3,3H15c-1.7,0-3-1.4-3-3V19.5c0.4,0.1,0.9,0.1,1.3,0.1c0.3,0,0.6,0,0.9-0.1v13.2
		c0,0.4,0.3,0.8,0.8,0.8h13.8c0.4,0,0.8-0.3,0.8-0.8V12.3c0-0.4-0.3-0.8-0.8-0.8h-7.5c0-0.8-0.1-1.5-0.3-2.3h7.8
		C30.5,9.3,31.8,10.7,31.8,12.3L31.8,12.3z M13.2,18.6c-3.9,0-7.1-3.2-7.1-7.1c0-3.9,3.2-7.1,7.1-7.1c3.9,0,7.1,3.2,7.1,7.1
		C20.3,15.4,17.1,18.6,13.2,18.6L13.2,18.6z M13.2,17.1c3.1,0,5.6-2.5,5.6-5.6c0-3.1-2.5-5.6-5.6-5.6c-3.1,0-5.6,2.5-5.6,5.6
		C7.5,14.6,10.1,17.1,13.2,17.1L13.2,17.1z M17.4,12.2c0.4,0,0.8-0.3,0.8-0.8c0-0.4-0.3-0.8-0.8-0.8h-3.5v-3c0-0.4-0.3-0.8-0.8-0.8
		c-0.4,0-0.8,0.3-0.8,0.8v3.7c0,0.4,0.3,0.8,0.8,0.8H17.4z M26.2,18.4H18c-0.4,0-0.8,0.3-0.8,0.8c0,0.4,0.3,0.8,0.8,0.8h8.2
		c0.4,0,0.8-0.3,0.8-0.8C26.9,18.7,26.6,18.4,26.2,18.4L26.2,18.4z M26.2,23H18c-0.4,0-0.8,0.3-0.8,0.8c0,0.4,0.3,0.8,0.8,0.8h8.2
		c0.4,0,0.8-0.3,0.8-0.8C26.9,23.3,26.6,23,26.2,23L26.2,23z M26.2,27.7H18c-0.4,0-0.8,0.3-0.8,0.8c0,0.4,0.3,0.8,0.8,0.8h8.2
		c0.4,0,0.8-0.3,0.8-0.8C26.9,28.1,26.6,27.7,26.2,27.7L26.2,27.7z M26.2,27.7"/>
</g>
</svg>
