<?xml version="1.0" encoding="utf-8"?>
<!-- Generator: Adobe Illustrator 21.1.0, SVG Export Plug-In . SVG Version: 6.00 Build 0)  -->
<svg version="1.1" id="Layer_1" xmlns="http://www.w3.org/2000/svg" xmlns:xlink="http://www.w3.org/1999/xlink" x="0px" y="0px"
	 viewBox="0 0 40 40" style="enable-background:new 0 0 40 40;" xml:space="preserve">
<style type="text/css">
	.st0{fill:#FFFFFF;}
</style>
<g>
	<path class="st0" d="M19.9,6.3c-8,0-14.4,6.4-14.4,14.4h12.1c0-1.2,0.9-2.1,2-2.2L24.9,8l-3,11.6c0.2,0.3,0.3,0.7,0.3,1.1h12.1
		C34.3,12.7,27.9,6.3,19.9,6.3z M8.1,20c-0.6,0-1.1-0.5-1.1-1.1s0.5-1.1,1.1-1.1s1.1,0.5,1.1,1.1S8.7,20,8.1,20z M12.2,13
		c-0.6,0-1.1-0.5-1.1-1.1c0-0.6,0.5-1.1,1.1-1.1s1.1,0.5,1.1,1.1C13.3,12.5,12.8,13,12.2,13z M19.9,10c-0.6,0-1.1-0.5-1.1-1.1
		s0.5-1.1,1.1-1.1c0.6,0,1.1,0.5,1.1,1.1S20.6,10,19.9,10z M28.2,13.3c-0.6,0-1.1-0.5-1.1-1.1s0.5-1.1,1.1-1.1
		c0.6,0,1.1,0.5,1.1,1.1S28.8,13.3,28.2,13.3z M31.6,20.1c-0.6,0-1.1-0.5-1.1-1.1c0-0.6,0.5-1.1,1.1-1.1c0.6,0,1.1,0.5,1.1,1.1
		C32.8,19.6,32.3,20.1,31.6,20.1z"/>
	<path class="st0" d="M19.9,4.4c-9,0-16.3,7.3-16.3,16.3S10.9,37,19.9,37s16.3-7.3,16.3-16.3S28.9,4.4,19.9,4.4z M19.9,36
		c-8.4,0-15.3-6.9-15.3-15.3S11.5,5.4,19.9,5.4s15.3,6.9,15.3,15.3S28.4,36,19.9,36z"/>
</g>
</svg>
