<?xml version="1.0" encoding="utf-8"?>
<!-- Generator: Adobe Illustrator 21.1.0, SVG Export Plug-In . SVG Version: 6.00 Build 0)  -->
<svg version="1.1" id="Layer_1" xmlns="http://www.w3.org/2000/svg" xmlns:xlink="http://www.w3.org/1999/xlink" x="0px" y="0px"
	 viewBox="0 0 40 40" style="enable-background:new 0 0 40 40;" xml:space="preserve">
<style type="text/css">
	.st0{fill:#FFFFFF;}
</style>
<g>
	<path class="st0" d="M35,17.7h-1.7c-0.3,0-0.6-0.2-0.6-0.5c-0.3-1.3-0.8-2.5-1.5-3.6C31,13.3,31,13,31.2,12.8l1.2-1.2
		c0.3-0.3,0.3-0.7,0-0.9l-2.8-2.8c-0.3-0.3-0.7-0.3-0.9,0L27.5,9c-0.2,0.2-0.6,0.2-0.8,0.1c-1.1-0.7-2.3-1.2-3.6-1.5
		c-0.3-0.1-0.5-0.3-0.5-0.6V5.3c0-0.4-0.3-0.7-0.7-0.7H18c-0.4,0-0.7,0.3-0.7,0.7V7c0,0.3-0.2,0.6-0.5,0.6c-1.3,0.3-2.5,0.8-3.6,1.5
		c-0.3,0.2-0.6,0.1-0.8-0.1l-1.2-1.2c-0.3-0.3-0.7-0.3-0.9,0l-2.8,2.8c-0.3,0.3-0.3,0.7,0,0.9l1.2,1.2c0.2,0.2,0.3,0.6,0.1,0.8
		c-0.7,1.1-1.2,2.3-1.5,3.6c-0.1,0.3-0.3,0.5-0.6,0.5H4.8c-0.4,0-0.7,0.3-0.7,0.7v3.9c0,0.4,0.3,0.7,0.7,0.7h1.7
		c0.3,0,0.6,0.2,0.6,0.5C7.5,24.8,8,26,8.7,27.1c0.2,0.3,0.1,0.6-0.1,0.8l-1.2,1.2c-0.3,0.3-0.3,0.7,0,0.9l2.8,2.8
		c0.3,0.3,0.7,0.3,0.9,0l1.2-1.2c0.2-0.2,0.6-0.2,0.8-0.1c1.1,0.7,2.3,1.2,3.6,1.5c0.3,0.1,0.5,0.3,0.5,0.6v1.7
		c0,0.4,0.3,0.7,0.7,0.7h3.9c0.4,0,0.7-0.3,0.7-0.7v-1.7c0-0.3,0.2-0.6,0.5-0.6c1.3-0.3,2.5-0.8,3.6-1.5c0.3-0.2,0.6-0.1,0.8,0.1
		l1.2,1.2c0.3,0.3,0.7,0.3,0.9,0l2.8-2.8c0.3-0.3,0.3-0.7,0-0.9l-1.2-1.2c-0.2-0.2-0.3-0.6-0.1-0.8c0.7-1.1,1.2-2.3,1.5-3.6
		c0.1-0.3,0.3-0.5,0.6-0.5H35c0.4,0,0.7-0.3,0.7-0.7v-3.9C35.7,18,35.4,17.7,35,17.7z M19.9,27c-3.7,0-6.6-3-6.6-6.6s3-6.6,6.6-6.6
		s6.6,3,6.6,6.6S23.6,27,19.9,27z"/>
</g>
</svg>
