<?xml version="1.0" encoding="utf-8"?>
<!-- Generator: Adobe Illustrator 21.1.0, SVG Export Plug-In . SVG Version: 6.00 Build 0)  -->
<svg version="1.1" id="Layer_1" xmlns="http://www.w3.org/2000/svg" xmlns:xlink="http://www.w3.org/1999/xlink" x="0px" y="0px"
	 viewBox="0 0 40 40" style="enable-background:new 0 0 40 40;" xml:space="preserve">
<style type="text/css">
	.st0{fill:#607D8B;}
</style>
<g>
	<path class="st0" d="M17.1,28.6l-1.9-5.2L7,15.2l0,0l-2.6-2.6l-3.1,3.1l2.6,2.6h0l8.1,8.1L17.1,28.6z M3.4,16.6l-1-1l1.9-1.9l1,1
		L3.4,16.6z M13.3,24.7l1.2,0.2l0-1.6l0.3,0.3l1.1,3l-0.8,0.8l-2.8-1.2l-0.4-0.4l1.7,0.1L13.3,24.7z M13.3,24.7"/>
	<path class="st0" d="M29.8,12.9c-4.8,0-8.8,2.7-8.8,6c0,1.9,1.3,3.7,3.4,4.8l-1.7,2.9l0.7-0.1c0,0,4.9-0.8,8.2-1.7
		c4.4-1.3,6.9-3.4,6.9-5.9C38.6,15.6,34.6,12.9,29.8,12.9L29.8,12.9z M30.7,22.2h-1.9v-1.8h1.9V22.2z M32.2,18.1
		c-0.1,0.2-0.2,0.3-0.3,0.4c-0.1,0.1-0.3,0.2-0.4,0.3c-0.1,0.1-0.3,0.1-0.4,0.2c-0.1,0.1-0.2,0.1-0.3,0.2c-0.1,0.1-0.1,0.1-0.2,0.2
		c0,0.1-0.1,0.1-0.1,0.2c0,0.1,0,0.2,0,0.3h-1.7c0-0.1,0-0.2,0-0.3c0-0.1,0-0.3,0.1-0.4c0-0.2,0.1-0.3,0.2-0.4
		c0.1-0.1,0.2-0.3,0.4-0.4c0.1,0,0.2-0.1,0.3-0.1c0.1,0,0.2-0.1,0.3-0.1c0.1-0.1,0.2-0.1,0.2-0.2c0.1-0.1,0.1-0.2,0.1-0.3
		c0-0.3-0.2-0.5-0.5-0.5c-0.2,0-0.4,0.1-0.5,0.2c-0.1,0.2-0.1,0.3-0.1,0.5h-1.9c0-0.3,0.1-0.6,0.2-0.8c0.1-0.3,0.2-0.5,0.4-0.7
		c0.2-0.2,0.5-0.4,0.8-0.5c0.3-0.1,0.7-0.2,1.1-0.2c0.4,0,0.8,0.1,1.1,0.2c0.3,0.1,0.5,0.3,0.7,0.5c0.2,0.2,0.3,0.4,0.4,0.6
		c0.1,0.2,0.1,0.4,0.2,0.6C32.3,17.7,32.3,17.9,32.2,18.1L32.2,18.1z M32.2,18.1"/>
	<path class="st0" d="M10.1,12.1H15v1.6h7.2v-1.6H27v0.2c0.4-0.1,0.8-0.2,1.2-0.2v-1.2h-6.1V8.2h-1.9c0.6-0.5,0.9-1.2,0.9-2
		c0-1.4-1.2-2.6-2.6-2.6c-1.4,0-2.6,1.2-2.6,2.6c0,0.8,0.4,1.5,0.9,2H15v2.7H8.8V16l1.2,1.2V12.1z M18.5,4.9c0.7,0,1.4,0.6,1.4,1.4
		c0,0.7-0.6,1.4-1.4,1.4c-0.7,0-1.4-0.6-1.4-1.4C17.2,5.5,17.8,4.9,18.5,4.9L18.5,4.9z M18.5,4.9"/>
	<path class="st0" d="M27,33.8h-17v-8.2l-1.2-1.2V35h19.4v-8.6c-0.4,0.1-0.8,0.2-1.2,0.3V33.8z M27,33.8"/>
</g>
</svg>
