<svg id="Layer_1" data-name="Layer 1" xmlns="http://www.w3.org/2000/svg" viewBox="0 0 40 40"><defs><style>.cls-1,.cls-3{fill:#231f20;}.cls-2{fill:#fff;}.cls-3{font-size:9.55px;font-family:MyriadPro-Bold, Myriad Pro;font-weight:700;}</style></defs><title>odometro</title><path class="cls-1" d="M37.69,36.75H2.34c-1,0-1.81-1.06-1.81-2.41V5.22c0-1.35.8-2.41,1.81-2.41H37.69c1,0,1.81,1.06,1.81,2.41V34.34C39.5,35.69,38.7,36.75,37.69,36.75ZM2.34,3.87c-.36,0-.76.58-.76,1.35V34.34c0,.77.4,1.35.76,1.35H37.69c.36,0,.76-.58.76-1.35V5.22c0-.77-.4-1.35-.76-1.35Z"/><rect class="cls-1" x="4.43" y="20.22" width="0.91" height="2.39" rx="0.12" ry="0.12"/><rect class="cls-1" x="6.11" y="20.22" width="0.91" height="2.39" rx="0.12" ry="0.12"/><rect class="cls-1" x="7.79" y="20.22" width="0.91" height="2.39" rx="0.12" ry="0.12"/><rect class="cls-1" x="9.48" y="20.22" width="0.91" height="2.39" rx="0.12" ry="0.12"/><rect class="cls-1" x="11.16" y="20.22" width="0.91" height="2.39" rx="0.12" ry="0.12"/><rect class="cls-1" x="12.84" y="20.22" width="0.91" height="2.39" rx="0.12" ry="0.12"/><rect class="cls-1" x="14.52" y="20.22" width="0.91" height="2.39" rx="0.12" ry="0.12"/><rect class="cls-1" x="16.2" y="20.22" width="0.91" height="2.39" rx="0.12" ry="0.12"/><rect class="cls-1" x="17.88" y="20.22" width="0.91" height="2.39" rx="0.12" ry="0.12"/><rect class="cls-1" x="19.57" y="20.22" width="0.91" height="2.39" rx="0.12" ry="0.12"/><rect class="cls-1" x="21.25" y="20.22" width="0.91" height="2.39" rx="0.12" ry="0.12"/><rect class="cls-1" x="22.93" y="20.22" width="0.91" height="2.39" rx="0.12" ry="0.12"/><rect class="cls-1" x="24.62" y="20.22" width="0.91" height="2.39" rx="0.12" ry="0.12"/><rect class="cls-1" x="26.3" y="20.22" width="0.91" height="2.39" rx="0.12" ry="0.12"/><rect class="cls-1" x="27.98" y="20.22" width="0.91" height="2.39" rx="0.12" ry="0.12"/><rect class="cls-1" x="29.66" y="20.22" width="0.91" height="2.39" rx="0.12" ry="0.12"/><rect class="cls-1" x="31.34" y="20.22" width="0.91" height="2.39" rx="0.12" ry="0.12"/><rect class="cls-1" x="33.03" y="20.22" width="0.91" height="2.39" rx="0.12" ry="0.12"/><path class="cls-1" d="M36,17.82a1.39,1.39,0,0,1-1.39,1.4H4.18a1.4,1.4,0,1,1,0-2.8H34.59A1.4,1.4,0,0,1,36,17.82Z"/><rect class="cls-1" x="2.8" y="7.36" width="6.76" height="8.04"/><rect class="cls-1" x="9.72" y="7.36" width="6.76" height="8.04"/><rect class="cls-1" x="16.64" y="7.36" width="6.76" height="8.04"/><rect class="cls-1" x="23.57" y="7.36" width="6.76" height="8.04"/><rect class="cls-1" x="30.49" y="7.36" width="6.76" height="8.04"/><path class="cls-2" d="M4.21,9.81A1.21,1.21,0,0,1,5.54,8.56H6.8A1.16,1.16,0,0,1,8.1,9.81V13A1.13,1.13,0,0,1,6.8,14.22H5.54A1.18,1.18,0,0,1,4.21,13Zm1.33,3.83H6.8A.63.63,0,0,0,7.52,13V9.81c0-.36-.15-.68-.72-.68H5.54c-.54,0-.76.31-.76.68V13C4.78,13.48,5.17,13.65,5.54,13.65Z"/><path class="cls-2" d="M11.16,9.81a1.21,1.21,0,0,1,1.33-1.25h1.27A1.16,1.16,0,0,1,15,9.81V13a1.13,1.13,0,0,1-1.29,1.25H12.49A1.18,1.18,0,0,1,11.16,13Zm1.33,3.83h1.27a.63.63,0,0,0,.72-.68V9.81c0-.36-.15-.68-.72-.68H12.49c-.54,0-.76.31-.76.68V13C11.73,13.48,12.11,13.65,12.49,13.65Z"/><path class="cls-2" d="M18.08,9.81a1.21,1.21,0,0,1,1.33-1.25h1.27A1.16,1.16,0,0,1,22,9.81V13a1.13,1.13,0,0,1-1.29,1.25H19.41A1.18,1.18,0,0,1,18.08,13Zm1.33,3.83h1.27a.63.63,0,0,0,.72-.68V9.81c0-.36-.15-.68-.72-.68H19.41c-.54,0-.76.31-.76.68V13C18.65,13.48,19,13.65,19.41,13.65Z"/><path class="cls-2" d="M25.19,13.64h2.35a.65.65,0,0,0,.7-.72v-.85c0-.25,0-.73-.7-.73H26.34a.58.58,0,0,0-.63.58H25.2l.17-3.36h3.26v.57H25.9L25.8,11a.89.89,0,0,1,.57-.23,8.19,8.19,0,0,1,1.16,0,1.14,1.14,0,0,1,1.27,1.28v.88a1.21,1.21,0,0,1-1.27,1.31,10.84,10.84,0,0,1-2.35-.19Z"/><path class="cls-2" d="M34.17,8.56h.68l-2.27,3.61h2.19v-1.6l.29-.58h.29v2.18H36v.46l-.7.15V14.2h-.57V12.77H31.95l-.26-.29Z"/><text class="cls-3" transform="translate(12.04 32.99)">24h</text></svg>