<svg id="Layer_1" data-name="Layer 1" xmlns="http://www.w3.org/2000/svg" viewBox="0 0 40 40"><defs><style>.cls-1{fill:#231f20;}</style></defs><title>odometro</title><path class="cls-1" d="M20.09,2.31a18,18,0,0,0-18,18H17.27a2.81,2.81,0,0,1,2.55-2.8L26.29,4.5,22.55,19a2.79,2.79,0,0,1,.37,1.37H38.14A18,18,0,0,0,20.09,2.31ZM5.26,19.53a1.44,1.44,0,1,1,1.44-1.44A1.44,1.44,0,0,1,5.26,19.53Zm5.12-8.78a1.44,1.44,0,1,1,1.44-1.44A1.44,1.44,0,0,1,10.38,10.75Zm9.71-3.83a1.44,1.44,0,1,1,1.44-1.44A1.44,1.44,0,0,1,20.09,6.92Zm10.36,4.15a1.44,1.44,0,1,1,1.44-1.44A1.44,1.44,0,0,1,30.45,11.07Zm4.31,8.53a1.44,1.44,0,1,1,1.44-1.44A1.44,1.44,0,0,1,34.76,19.61Z"/><path class="cls-1" d="M20.09,38a18,18,0,1,1,18-18A18.06,18.06,0,0,1,20.09,38Zm0-35.55A17.51,17.51,0,1,0,37.61,20,17.53,17.53,0,0,0,20.09,2.49Z"/><path class="cls-1" d="M20.09,1.56A18.44,18.44,0,1,1,1.65,20,18.44,18.44,0,0,1,20.09,1.56Zm0-1.06A19.5,19.5,0,1,0,39.59,20,19.52,19.52,0,0,0,20.09.5Z"/><path class="cls-1" d="M9.69,27.58h5V21.65h-5Zm1.26-1.49a1.88,1.88,0,0,0,.9.23.92.92,0,0,0,1-.91c0-.53-.37-.92-1.2-.92a3.47,3.47,0,0,0-.59,0l.27-2h2V23h-1.6l-.16,1.07a2.25,2.25,0,0,1,.34,0,1.75,1.75,0,0,1,.9.23,1.18,1.18,0,0,1,.6,1.07,1.45,1.45,0,0,1-1.56,1.43,2.07,2.07,0,0,1-1-.26Z"/><path class="cls-1" d="M17.26,26.34h0c.57,0,.85-.68.85-1.74s-.26-1.71-.85-1.71-.85.66-.85,1.71S16.74,26.34,17.26,26.34Z"/><path class="cls-1" d="M14.79,27.58h5V21.65h-5Zm2.52-5.13c.88,0,1.38.79,1.38,2.12s-.53,2.21-1.45,2.21h0c-.82,0-1.38-.77-1.39-2.15S16.46,22.45,17.31,22.45Z"/><path class="cls-1" d="M20.41,27.58h5V21.65h-5Zm1.09-1.22.44-.43c1.07-1,1.56-1.56,1.56-2.19a.74.74,0,0,0-.82-.82,1.43,1.43,0,0,0-.89.35l-.18-.4a1.86,1.86,0,0,1,1.18-.43,1.18,1.18,0,0,1,1.27,1.22c0,.77-.56,1.4-1.44,2.25l-.33.31h1.87v.47H21.51Z"/><path class="cls-1" d="M28,26.34h0c.57,0,.85-.68.85-1.74s-.26-1.71-.85-1.71-.85.66-.85,1.71S27.52,26.34,28,26.34Z"/><path class="cls-1" d="M25.52,27.58h5V21.65h-5Zm2.57-5.13c.88,0,1.38.79,1.38,2.12s-.53,2.21-1.45,2.21h0c-.82,0-1.38-.77-1.39-2.15S27.24,22.45,28.09,22.45Z"/><path class="cls-1" d="M35.6,21.65h-1c0,.11,0,.21,0,.33,0,1.42-.53,2.21-1.45,2.21h0c-.82,0-1.38-.77-1.39-2.15,0-.14,0-.26,0-.39H30.62v5.93H33V25.8h0l-.73.39-.11-.43.91-.49h.48v2.3h2Z"/><path class="cls-1" d="M32.31,22c0,1.09.32,1.74.84,1.74h0c.57,0,.85-.68.85-1.74,0-.12,0-.24,0-.35H32.32C32.31,21.76,32.31,21.88,32.31,22Z"/><path class="cls-1" d="M4.59,27.58h5V21.65h-5Zm2.32-5.06h.48V26.7H6.84V23h0l-.73.39L6,23Z"/><rect class="cls-1" x="19.87" y="27.13" width="0.45" height="0.45"/></svg>